<svg width="37" height="37" viewBox="0 0 37 37" fill="none" xmlns="http://www.w3.org/2000/svg">
<path fill-rule="evenodd" clip-rule="evenodd" d="M10.1678 8.12362C10.1678 6.00678 11.0248 3.97665 12.5503 2.47982C14.0757 0.982998 16.1447 0.14209 18.3021 0.14209C20.4594 0.14209 22.5284 0.982998 24.0538 2.47982C25.5793 3.97665 26.4363 6.00678 26.4363 8.12362C26.4363 10.2404 25.5793 12.2706 24.0538 13.7674C22.5284 15.2642 20.4594 16.1051 18.3021 16.1051C16.1447 16.1051 14.0757 15.2642 12.5503 13.7674C11.0248 12.2706 10.1678 10.2404 10.1678 8.12362ZM10.1678 20.0959C7.47114 20.0959 4.88492 21.147 2.97808 23.0181C1.07125 24.8891 0 27.4268 0 30.0728C0 31.6604 0.642749 33.183 1.78685 34.3057C2.93095 35.4283 4.48269 36.059 6.10069 36.059H30.5034C32.1214 36.059 33.6732 35.4283 34.8173 34.3057C35.9614 33.183 36.6041 31.6604 36.6041 30.0728C36.6041 27.4268 35.5329 24.8891 33.626 23.0181C31.7192 21.147 29.133 20.0959 26.4363 20.0959H10.1678Z" fill="black"/>
</svg>
