<svg width="16" height="17" viewBox="0 0 16 17" fill="none" xmlns="http://www.w3.org/2000/svg">
<path fill-rule="evenodd" clip-rule="evenodd" d="M10.6821 11.8168C9.66576 12.6071 8.38866 13.0777 7.00167 13.0777C3.68704 13.0777 1 10.39 1 7.0744C1 3.75884 3.68704 1.07104 7.00167 1.07104C10.3163 1.07104 13.0033 3.75884 13.0033 7.0744C13.0033 8.46164 12.533 9.73898 11.743 10.7555L14.7799 13.7897C15.0731 14.0826 15.0734 14.5577 14.7806 14.8509C14.4878 15.1442 14.0128 15.1445 13.7196 14.8516L10.6821 11.8168ZM11.5029 7.0744C11.5029 9.56106 9.48765 11.5769 7.00167 11.5769C4.5157 11.5769 2.50042 9.56106 2.50042 7.0744C2.50042 4.58773 4.5157 2.57188 7.00167 2.57188C9.48765 2.57188 11.5029 4.58773 11.5029 7.0744Z" fill="#868FA0"/>
</svg>
