<svg width="33" height="37" viewBox="0 0 33 37" fill="none" xmlns="http://www.w3.org/2000/svg">
<path d="M7.65019 29.0026H11.3261L21.8287 18.5875L18.0653 14.8241L7.65019 25.2392V29.0026ZM23.054 17.3622L24.892 15.4367C25.067 15.2617 25.1546 15.0575 25.1546 14.8241C25.1546 14.5907 25.067 14.3865 24.892 14.2114L22.4414 11.7608C22.2663 11.5858 22.0621 11.4982 21.8287 11.4982C21.5953 11.4982 21.3911 11.5858 21.2161 11.7608L19.2906 13.5988L23.054 17.3622ZM4.14932 36.0044C3.18657 36.0044 2.36212 35.6613 1.67595 34.9751C0.989776 34.2889 0.647274 33.4651 0.64844 32.5035V7.99736C0.64844 7.03462 0.991526 6.21016 1.6777 5.52399C2.36387 4.83782 3.18774 4.49531 4.14932 4.49648H11.5012C11.8804 3.44622 12.5152 2.60017 13.4056 1.95835C14.296 1.31652 15.2949 0.995605 16.4024 0.995605C17.511 0.995605 18.5105 1.31652 19.4009 1.95835C20.2913 2.60017 20.9255 3.44622 21.3036 4.49648H28.6554C29.6182 4.49648 30.4426 4.83957 31.1288 5.52574C31.815 6.21191 32.1575 7.03578 32.1563 7.99736V32.5035C32.1563 33.4662 31.8132 34.2907 31.1271 34.9769C30.4409 35.663 29.617 36.0055 28.6554 36.0044H4.14932ZM16.4024 6.68453C16.7816 6.68453 17.095 6.56025 17.3424 6.31168C17.5898 6.06312 17.714 5.74979 17.7152 5.3717C17.7152 4.99244 17.5909 4.67911 17.3424 4.43171C17.0938 4.18432 16.7805 4.06004 16.4024 4.05887C16.0231 4.05887 15.7098 4.18315 15.4624 4.43171C15.215 4.68028 15.0907 4.9936 15.0896 5.3717C15.0896 5.75096 15.2138 6.06429 15.4624 6.31168C15.711 6.55908 16.0243 6.68336 16.4024 6.68453Z" fill="black"/>
</svg>
