<svg width="37" height="37" viewBox="0 0 37 37" fill="none" xmlns="http://www.w3.org/2000/svg">
<mask id="mask0_415_5733" style="mask-type:luminance" maskUnits="userSpaceOnUse" x="1" y="2" width="35" height="33">
<path d="M14.6458 15.4167C15.3544 15.4167 16.0561 15.2771 16.7107 15.0059C17.3654 14.7348 17.9602 14.3373 18.4613 13.8363C18.9623 13.3352 19.3598 12.7404 19.6309 12.0857C19.9021 11.4311 20.0417 10.7294 20.0417 10.0208C20.0417 9.31224 19.9021 8.61059 19.6309 7.95594C19.3598 7.30128 18.9623 6.70645 18.4613 6.2054C17.9602 5.70435 17.3654 5.3069 16.7107 5.03573C16.0561 4.76457 15.3544 4.625 14.6458 4.625C13.2148 4.625 11.8423 5.19349 10.8304 6.2054C9.81849 7.21732 9.25 8.58977 9.25 10.0208C9.25 11.4519 9.81849 12.8243 10.8304 13.8363C11.8423 14.8482 13.2148 15.4167 14.6458 15.4167Z" fill="white" stroke="white" stroke-width="4" stroke-linecap="round" stroke-linejoin="round"/>
<path d="M24.666 12.3333L29.291 16.9583L33.916 12.3333" stroke="white" stroke-width="4" stroke-linecap="round" stroke-linejoin="round"/>
<path d="M3.08301 31.45V32.375H26.208V31.45C26.208 27.9966 26.208 26.27 25.5358 24.9503C24.9446 23.79 24.0013 22.8467 22.841 22.2555C21.5213 21.5833 19.7947 21.5833 16.3413 21.5833H12.9497C9.49634 21.5833 7.76967 21.5833 6.45001 22.2555C5.28973 22.8467 4.34638 23.79 3.75517 24.9503C3.08301 26.27 3.08301 27.9966 3.08301 31.45Z" fill="white" stroke="white" stroke-width="4" stroke-linecap="round" stroke-linejoin="round"/>
</mask>
<g mask="url(#mask0_415_5733)">
<path d="M0 0H37V37H0V0Z" fill="black"/>
</g>
</svg>
