<svg width="21" height="21" fill="none" xmlns="http://www.w3.org/2000/svg">
  <path d="M10.1044 7.7406C10.7674 7.7406 11.4033 8.00399 11.8721 8.47283C12.341 8.94167 12.6044 9.57756 12.6044 10.2406C12.6044 10.9036 12.341 11.5395 11.8721 12.0084C11.4033 12.4772 10.7674 12.7406 10.1044 12.7406C9.44131 12.7406 8.80542 12.4772 8.33658 12.0084C7.86774 11.5395 7.60435 10.9036 7.60435 10.2406C7.60435 9.57756 7.86774 8.94167 8.33658 8.47283C8.80542 8.00399 9.44131 7.7406 10.1044 7.7406ZM10.1044 3.9906C14.271 3.9906 17.8293 6.58227 19.271 10.2406C17.8293 13.8989 14.271 16.4906 10.1044 16.4906C5.93768 16.4906 2.37935 13.8989 0.937683 10.2406C2.37935 6.58227 5.93768 3.9906 10.1044 3.9906ZM2.75435 10.2406C3.4279 11.6159 4.47377 12.7746 5.77308 13.585C7.07239 14.3954 8.57301 14.825 10.1044 14.825C11.6357 14.825 13.1363 14.3954 14.4356 13.585C15.7349 12.7746 16.7808 11.6159 17.4543 10.2406C16.7808 8.86534 15.7349 7.70664 14.4356 6.89622C13.1363 6.0858 11.6357 5.65617 10.1044 5.65617C8.57301 5.65617 7.07239 6.0858 5.77308 6.89622C4.47377 7.70664 3.4279 8.86534 2.75435 10.2406Z" fill="#BDCDD6"/>
</svg>
