<svg width="28" height="34" viewBox="0 0 28 34" fill="none" xmlns="http://www.w3.org/2000/svg">
<path d="M4.32715 33.7504C3.40359 33.7504 2.61269 33.4213 1.95444 32.7631C1.2962 32.1048 0.967633 31.3145 0.968753 30.392V3.52484C0.968753 2.60128 1.29788 1.81038 1.95612 1.15214C2.61437 0.493889 3.40471 0.165326 4.32715 0.166446H19.4399L27.8359 8.56244V30.392C27.8359 31.3156 27.5068 32.1065 26.8486 32.7647C26.1903 33.423 25.4 33.7515 24.4775 33.7504H4.32715ZM4.32715 30.392H24.4775V10.2416H17.7607V3.52484H4.32715V30.392ZM14.4023 28.7128C16.2775 28.7128 17.866 28.0551 19.1679 26.7398C20.4699 25.4244 21.1203 23.8432 21.1191 21.996V15.2792H17.7607V21.996C17.7607 22.9196 17.4389 23.7105 16.7952 24.3687C16.1515 25.027 15.3539 25.3556 14.4023 25.3544C13.4788 25.3544 12.6879 25.0253 12.0296 24.3671C11.3714 23.7088 11.0428 22.9185 11.0439 21.996V12.7604C11.0439 12.5086 11.1279 12.3054 11.2958 12.1509C11.4637 11.9964 11.6597 11.9197 11.8835 11.9208C12.1354 11.9208 12.3386 11.9981 12.4931 12.1526C12.6476 12.3071 12.7243 12.5097 12.7231 12.7604V21.996H16.0815V12.7604C16.0815 11.585 15.6757 10.5915 14.8641 9.77986C14.0525 8.96825 13.059 8.56244 11.8835 8.56244C10.7081 8.56244 9.71458 8.96825 8.90297 9.77986C8.09136 10.5915 7.68555 11.585 7.68555 12.7604V21.996C7.68555 23.8432 8.34324 25.4244 9.65861 26.7398C10.974 28.0551 12.5552 28.7128 14.4023 28.7128Z" fill="black"/>
</svg>
