<svg width="32" height="37" viewBox="0 0 32 37" fill="none" xmlns="http://www.w3.org/2000/svg">
<path d="M31.9336 1.52845V29.2557C31.9336 29.6234 31.7839 29.976 31.5174 30.236C31.2509 30.496 30.8894 30.6421 30.5126 30.6421H6.35502C5.60126 30.6421 4.87837 30.9342 4.34538 31.4542C3.81239 31.9742 3.51296 32.6794 3.51296 33.4148H27.6705C28.0474 33.4148 28.4088 33.5609 28.6753 33.8209C28.9418 34.0809 29.0915 34.4335 29.0915 34.8012C29.0915 35.1689 28.9418 35.5215 28.6753 35.7815C28.4088 36.0415 28.0474 36.1875 27.6705 36.1875H2.09193C1.71505 36.1875 1.3536 36.0415 1.08711 35.7815C0.820614 35.5215 0.670898 35.1689 0.670898 34.8012V5.68754C0.670898 4.2168 1.26976 2.80629 2.33574 1.76632C3.40172 0.726341 4.8475 0.14209 6.35502 0.14209H30.5126C30.8894 0.14209 31.2509 0.288153 31.5174 0.548146C31.7839 0.80814 31.9336 1.16077 31.9336 1.52845Z" fill="black"/>
</svg>
