<svg width="37" height="37" viewBox="0 0 37 37" fill="none" xmlns="http://www.w3.org/2000/svg">
<path d="M18.4028 0.14209C18.4028 0.14209 7.01881 10.7974 0.656979 16.5681C0.454543 16.7593 0.291445 16.9946 0.178264 17.2586C0.0650842 17.5226 0.00434971 17.8094 0 18.1005C0 18.6297 0.193886 19.1373 0.539004 19.5115C0.884123 19.8857 1.3522 20.0959 1.84028 20.0959H5.52083V34.0636C5.52083 34.5928 5.71472 35.1003 6.05983 35.4745C6.40495 35.8487 6.87303 36.059 7.36111 36.059H12.8819C13.37 36.059 13.8381 35.8487 14.1832 35.4745C14.5283 35.1003 14.7222 34.5928 14.7222 34.0636V26.0821H22.0833V34.0636C22.0833 34.5928 22.2772 35.1003 22.6223 35.4745C22.9674 35.8487 23.4355 36.059 23.9236 36.059H29.4444C29.9325 36.059 30.4006 35.8487 30.7457 35.4745C31.0908 35.1003 31.2847 34.5928 31.2847 34.0636V20.0959H34.9653C35.4533 20.0959 35.9214 19.8857 36.2665 19.5115C36.6116 19.1373 36.8055 18.6297 36.8055 18.1005C36.803 17.8039 36.7382 17.5117 36.616 17.2462C36.4939 16.9807 36.3177 16.7488 36.1007 16.5681C29.783 10.7974 18.4028 0.14209 18.4028 0.14209Z" fill="black"/>
</svg>
