<svg width="13" height="12" viewBox="0 0 13 12" fill="none" xmlns="http://www.w3.org/2000/svg">
<path d="M7.20995 0.75C7.20995 0.335786 6.87416 0 6.45995 0C6.04574 0 5.70995 0.335786 5.70995 0.75V5.24997H1.20996C0.795747 5.24997 0.459961 5.58575 0.459961 5.99997C0.459961 6.41418 0.795747 6.74997 1.20996 6.74997H5.70995L5.70996 11.25C5.70996 11.6642 6.04575 12 6.45996 12C6.87417 12 7.20996 11.6642 7.20996 11.25L7.20995 6.74997H11.71C12.1242 6.74997 12.46 6.41418 12.46 5.99997C12.46 5.58575 12.1242 5.24997 11.71 5.24997H7.20995V0.75Z" fill="white"/>
</svg>
