<svg width="43" height="42" viewBox="0 0 43 42" fill="none" xmlns="http://www.w3.org/2000/svg">
<path d="M7.16699 6.97544V34.3088C7.16699 35.2149 7.54452 36.084 8.21653 36.7247C8.88853 37.3655 9.79997 37.7254 10.7503 37.7254H32.2503C33.2007 37.7254 34.1121 37.3655 34.7841 36.7247C35.4561 36.084 35.8337 35.2149 35.8337 34.3088V14.393C35.8336 13.9379 35.7382 13.4873 35.5529 13.0678C35.3677 12.6483 35.0965 12.2683 34.7551 11.9501L26.8001 4.53253C26.1306 3.9084 25.2316 3.55889 24.2953 3.55878H10.7503C9.79997 3.55878 8.88853 3.91875 8.21653 4.5595C7.54452 5.20024 7.16699 6.06929 7.16699 6.97544Z" stroke="black" stroke-width="2" stroke-linecap="round" stroke-linejoin="round"/>
<path d="M25.084 3.55878V10.3921C25.084 11.2983 25.4615 12.1673 26.1335 12.8081C26.8055 13.4488 27.717 13.8088 28.6673 13.8088H35.834" stroke="black" stroke-width="2" stroke-linejoin="round"/>
</svg>
