<svg width="22" height="22" viewBox="0 0 22 22" fill="none" xmlns="http://www.w3.org/2000/svg">
<g id="pepicons-pop:pen">
<g id="Group">
<path id="Vector" fill-rule="evenodd" clip-rule="evenodd" d="M15.484 0.322616L4.39821 11.4084C4.23249 11.5737 4.12382 11.7876 4.08801 12.0189L3.31251 17.0723C3.28634 17.243 3.30072 17.4174 3.35449 17.5815C3.40825 17.7456 3.49989 17.8947 3.62199 18.0168C3.74409 18.1389 3.89321 18.2306 4.0573 18.2843C4.22139 18.3381 4.39583 18.3525 4.56651 18.3263L9.62101 17.5508C9.8522 17.5153 10.066 17.407 10.2315 17.2417L21.3173 6.15591C21.5235 5.94963 21.6394 5.6699 21.6394 5.37822C21.6394 5.08653 21.5235 4.8068 21.3173 4.60052L17.0383 0.321516C16.8321 0.115634 16.5526 0 16.2612 0C15.9697 0 15.6902 0.115634 15.484 0.321516V0.322616ZM5.71491 15.925L6.20771 12.7086L16.2617 2.65462L18.9842 5.37822L8.93021 15.4322L5.71491 15.925Z" fill="#6096B4"/>
<path id="Vector_2" d="M13.5527 4.75231L14.7187 3.58521L18.2849 7.14921L17.1178 8.31631L13.5527 4.75231Z" fill="#6096B4"/>
</g>
</g>
</svg>
